<svg version="1" xmlns="http://www.w3.org/2000/svg" width="341.333" height="341.333" viewBox="0 0 256.000000 256.000000"><path d="M175 1.3c-20.4 6.8-29.4 28.6-19.6 47.6 2.1 4.1 8.6 10.5 12.6 12.6l3.2 1.7-.6 10.6c-.6 9.4-1.2 18.2-2.1 31.7-.2 2.2-.4 5-.4 6.3-.1 2.1-.5 2.3-3.4 1.8-1.8-.3-6-1.2-9.3-2.1-10.4-2.8-13.3-2.3-29.4 5.4-10.7 5-23.5 9.9-24.2 9.2-.3-.3-3.7-6.7-7.5-14.1-3.9-7.4-9.8-19.1-13.3-25.8-5.8-11.2-6.2-12.6-5-14.5 5.1-8.2 6.4-12.2 6.4-20.2 0-6.5-.5-9.1-2.5-13.5-4.3-9.2-13-16.6-21.8-18.5-16.4-3.5-31 3.6-38 18.4-3.5 7.4-3.7 19.2-.4 26.2 2.6 5.9 8.4 12.3 13.9 15.5 4.4 2.6 16.1 5.3 20.5 4.7 2.3-.3 3 .4 5.9 5.9 1.9 3.5 4.2 7.9 5.3 9.8 1.1 1.9 3.8 6.9 6 11s5.4 10 7.1 13c6.2 10.9 6.2 10.5.2 13.4-2.9 1.4-5.6 2.6-6 2.6-.5 0-2.2 1-3.9 2.2-1.8 1.3-3.3 2.2-3.4 2.1-1.5-1-27.8 12.2-43.3 21.8-14.6 8.9-15 9.3-14.1 12.7.4 1.5.7 6.7.6 11.5-.1 10-.1 10 7.8 11.2l4.8.7-.1 5.7c-.1 3.1-.1 15.1-.1 26.8l.1 21.2 117.3-.2 117.2-.2.3-63.1.2-63.1-5.7-1.2c-7.6-1.4-16-2.9-32.3-5.5-10.6-1.6-18.2-2.9-19-3.1-.3-.1-3.1-.5-6.4-1l-5.8-.8.7-10.6c.4-5.8.8-12.2 1-14.1.1-1.9.6-8.2 1-13.8 1-14.9.9-14.6 5.2-15.5 7.7-1.6 16.7-10.5 20.4-20.1 2.6-6.9 2-17.7-1.4-24.7-3.2-6.7-10-13.2-16.5-16.1C191.7.3 180.3-.4 175 1.3z"/></svg>